<?xml version="1.0" standalone="no"?>
<!DOCTYPE svg PUBLIC "-//W3C//DTD SVG 20010904//EN"
 "http://www.w3.org/TR/2001/REC-SVG-20010904/DTD/svg10.dtd">
<svg version="1.0" xmlns="http://www.w3.org/2000/svg"
 width="512.000000pt" height="512.000000pt" viewBox="0 0 512.000000 512.000000"
 preserveAspectRatio="xMidYMid meet">

<g transform="translate(0.000000,512.000000) scale(0.100000,-0.100000)"
fill="#000000" stroke="none">
<path d="M2235 4391 c-34 -15 -96 -90 -122 -150 -30 -66 -34 -159 -10 -212 8
-19 20 -61 25 -94 18 -108 23 -115 86 -115 63 0 102 26 130 85 21 44 13 73
-22 81 -89 20 -89 21 -7 28 99 9 120 17 145 58 30 49 28 160 -3 219 -32 59
-92 101 -154 105 -26 2 -57 0 -68 -5z"/>
<path d="M2629 4267 c-44 -30 -90 -99 -96 -145 -5 -44 22 -101 58 -119 37 -19
90 -15 139 10 62 31 82 62 82 130 1 68 -24 108 -82 131 -53 21 -61 20 -101 -7z"/>
<path d="M2894 4081 c-34 -20 -71 -74 -74 -106 -5 -47 2 -67 34 -102 27 -30
41 -37 70 -37 56 0 114 63 129 142 8 40 -13 96 -41 111 -31 17 -84 13 -118 -8z"/>
<path d="M3099 3853 c-85 -43 -108 -105 -70 -189 18 -40 63 -84 85 -84 17 0
88 39 113 63 45 41 39 134 -12 195 -34 41 -57 44 -116 15z"/>
<path d="M2145 3767 c-108 -49 -194 -253 -168 -396 14 -75 79 -183 165 -276
65 -70 89 -85 233 -151 56 -26 137 -109 167 -174 45 -95 62 -175 62 -295 0
-131 -17 -205 -74 -322 -54 -109 -114 -173 -337 -355 -100 -82 -220 -189 -267
-238 -231 -243 -247 -516 -42 -708 112 -105 238 -150 363 -130 163 26 325 193
367 380 8 35 22 135 31 223 23 234 71 440 155 675 76 214 135 319 253 453 131
148 167 204 212 327 40 109 47 268 15 372 -20 67 -28 78 -104 153 -46 44 -95
103 -111 130 -16 28 -59 82 -96 120 -37 39 -91 95 -121 125 -77 80 -149 106
-261 95 -91 -10 -164 -10 -312 -1 -74 5 -108 3 -130 -7z"/>
<path d="M3214 3581 c-30 -18 -74 -91 -74 -122 0 -46 99 -129 155 -129 36 0
57 19 74 69 45 135 -50 246 -155 182z"/>
</g>
</svg>
