<?xml version="1.0" standalone="no"?>
<!DOCTYPE svg PUBLIC "-//W3C//DTD SVG 20010904//EN"
 "http://www.w3.org/TR/2001/REC-SVG-20010904/DTD/svg10.dtd">
<svg version="1.0" xmlns="http://www.w3.org/2000/svg"
 width="50.000000pt" height="50.000000pt" viewBox="0 0 50.000000 50.000000"
 preserveAspectRatio="xMidYMid meet">

<g transform="translate(0.000000,50.000000) scale(0.100000,-0.100000)"
fill="#000000" stroke="none">
<path d="M300 485 c-10 -12 -16 -13 -26 -4 -18 15 -65 -7 -118 -54 -30 -27
-37 -39 -31 -56 7 -24 30 -28 42 -8 22 37 89 53 136 32 24 -10 57 21 57 55 0
44 -35 65 -60 35z m38 -31 c1 -10 -2 -26 -8 -34 -15 -23 -34 3 -26 35 8 29 30
29 34 -1z m-72 -20 c-5 -13 -10 -14 -18 -6 -6 6 -8 18 -4 28 5 13 10 14 18 6
6 -6 8 -18 4 -28z m-46 1 c0 -8 -4 -15 -10 -15 -5 0 -10 7 -10 15 0 8 5 15 10
15 6 0 10 -7 10 -15z"/>
<path d="M204 360 c-66 -33 -81 -96 -43 -180 11 -25 23 -66 26 -92 9 -77 58
-109 111 -72 30 21 29 77 -3 129 -32 52 -31 62 10 114 39 49 44 80 17 104 -25
23 -68 21 -118 -3z m104 -12 c20 -20 14 -44 -23 -88 -42 -50 -43 -73 -10 -122
41 -60 30 -118 -22 -118 -24 0 -43 26 -43 60 0 11 -11 53 -25 92 -27 78 -31
109 -14 139 20 39 111 63 137 37z"/>
</g>
</svg>
