<?xml version="1.0" standalone="no"?>
<!DOCTYPE svg PUBLIC "-//W3C//DTD SVG 20010904//EN"
 "http://www.w3.org/TR/2001/REC-SVG-20010904/DTD/svg10.dtd">
<svg version="1.0" xmlns="http://www.w3.org/2000/svg"
 width="50.000000pt" height="50.000000pt" viewBox="0 0 50.000000 50.000000"
 preserveAspectRatio="xMidYMid meet">

<g transform="translate(0.000000,50.000000) scale(0.100000,-0.100000)"
fill="#000000" stroke="none">
<path d="M152 488 c-32 -32 6 -110 45 -93 47 21 114 5 136 -32 12 -20 35 -16
42 8 13 39 -118 135 -149 110 -10 -9 -16 -8 -26 4 -15 18 -32 19 -48 3z m44
-32 c6 -26 -1 -46 -16 -46 -12 0 -24 46 -15 59 11 18 24 12 31 -13z m60 -22
c-5 -13 -10 -14 -18 -6 -6 6 -8 18 -4 28 5 13 10 14 18 6 6 -6 8 -18 4 -28z
m44 1 c0 -8 -4 -15 -10 -15 -5 0 -10 7 -10 15 0 8 5 15 10 15 6 0 10 -7 10
-15z"/>
<path d="M177 362 c-25 -28 -21 -55 18 -103 41 -52 42 -62 10 -114 -32 -52
-33 -108 -3 -129 53 -37 102 -5 111 72 3 26 15 67 26 92 27 59 27 110 -1 145
-40 51 -130 72 -161 37z m108 -16 c61 -26 69 -69 30 -172 -14 -36 -25 -77 -25
-91 0 -37 -18 -63 -43 -63 -52 0 -63 58 -22 118 33 49 32 72 -10 122 -19 23
-35 50 -35 59 0 41 44 52 105 27z"/>
</g>
</svg>
