<?xml version="1.0" standalone="no"?>
<!DOCTYPE svg PUBLIC "-//W3C//DTD SVG 20010904//EN"
 "http://www.w3.org/TR/2001/REC-SVG-20010904/DTD/svg10.dtd">
<svg version="1.0" xmlns="http://www.w3.org/2000/svg"
 width="512.000000pt" height="512.000000pt" viewBox="0 0 512.000000 512.000000"
 preserveAspectRatio="xMidYMid meet">

<g transform="translate(0.000000,512.000000) scale(0.100000,-0.100000)"
fill="#000000" stroke="none">
<path d="M2765 4385 c-82 -44 -124 -116 -125 -210 0 -69 23 -123 61 -142 13
-7 60 -16 104 -19 l80 -7 -48 -11 c-65 -15 -81 -37 -61 -85 8 -20 28 -48 44
-63 25 -24 39 -28 86 -28 53 0 56 1 68 33 8 17 17 58 20 89 4 32 14 72 23 89
9 18 16 57 16 93 0 78 -42 172 -102 230 -33 32 -48 40 -88 43 -32 3 -58 -1
-78 -12z"/>
<path d="M2383 4271 c-56 -26 -76 -59 -76 -127 0 -67 21 -99 83 -131 79 -41
147 -26 182 37 25 46 19 96 -19 152 -30 45 -85 88 -112 88 -9 0 -35 -9 -58
-19z"/>
<path d="M2107 4089 c-28 -16 -48 -72 -40 -111 15 -79 73 -142 129 -142 29 0
43 7 70 37 45 48 48 96 12 156 -38 61 -120 90 -171 60z"/>
<path d="M1944 3870 c-76 -29 -109 -175 -51 -227 25 -24 96 -63 113 -63 22 0
67 44 85 84 23 50 24 88 4 126 -24 46 -113 94 -151 80z"/>
<path d="M2433 3775 c-84 -23 -128 -50 -180 -112 -26 -32 -75 -85 -109 -118
-34 -33 -74 -82 -89 -110 -16 -27 -65 -86 -111 -130 -76 -75 -84 -86 -104
-153 -19 -63 -22 -90 -18 -185 9 -191 72 -323 251 -524 92 -102 145 -188 205
-333 99 -240 164 -497 197 -782 14 -117 30 -231 36 -253 34 -121 141 -257 248
-313 153 -82 327 -50 474 88 208 194 193 466 -39 710 -47 49 -167 156 -267
238 -223 182 -283 246 -337 355 -56 115 -74 191 -74 317 0 122 18 202 69 307
45 91 95 135 228 201 87 43 115 63 168 120 35 37 87 106 114 152 l50 84 -1
100 c0 118 -22 187 -84 264 -67 85 -147 104 -307 73 -60 -12 -86 -12 -145 -2
-40 7 -84 14 -98 16 -14 2 -49 -3 -77 -10z"/>
<path d="M1792 3584 c-62 -43 -70 -172 -14 -236 34 -40 137 -1 183 68 24 37
24 48 -2 102 -35 72 -114 104 -167 66z"/>
</g>
</svg>
